<svg width="16" height="16" viewBox="0 0 16 16" fill="none" xmlns="http://www.w3.org/2000/svg">
<g clip-path="url(#clip0_182_3889)">
<path d="M14 2.66634H4.66667C4.31304 2.66634 3.97391 2.80682 3.72386 3.05687C3.47381 3.30691 3.33333 3.64605 3.33333 3.99967C3.33333 4.3533 3.47381 4.69244 3.72386 4.94248C3.97391 5.19253 4.31304 5.33301 4.66667 5.33301H14V13.9997C14 14.1765 13.9298 14.3461 13.8047 14.4711C13.6797 14.5961 13.5101 14.6663 13.3333 14.6663H4.66667C3.95942 14.6663 3.28115 14.3854 2.78105 13.8853C2.28095 13.3852 2 12.7069 2 11.9997V3.99967C2 3.29243 2.28095 2.61415 2.78105 2.11406C3.28115 1.61396 3.95942 1.33301 4.66667 1.33301H13.3333C13.5101 1.33301 13.6797 1.40325 13.8047 1.52827C13.9298 1.65329 14 1.82286 14 1.99967V2.66634ZM13.3333 4.66634H4.66667C4.48986 4.66634 4.32029 4.5961 4.19526 4.47108C4.07024 4.34605 4 4.17649 4 3.99967C4 3.82286 4.07024 3.65329 4.19526 3.52827C4.32029 3.40325 4.48986 3.33301 4.66667 3.33301H13.3333V4.66634Z" fill="#03053D"/>
</g>
<defs>
<clipPath id="clip0_182_3889">
<rect width="16" height="16" fill="white"/>
</clipPath>
</defs>
</svg>
