<svg width="16" height="16" viewBox="0 0 16 16" fill="none" xmlns="http://www.w3.org/2000/svg">
<g clip-path="url(#clip0_182_3894)">
<path d="M14 5.99967V13.995C14.0006 14.0826 13.984 14.1694 13.951 14.2505C13.9181 14.3316 13.8695 14.4054 13.808 14.4678C13.7466 14.5301 13.6734 14.5797 13.5928 14.6138C13.5121 14.6479 13.4255 14.6657 13.338 14.6663H2.662C2.48654 14.6663 2.31826 14.5967 2.19413 14.4727C2.07 14.3487 2.00018 14.1805 2 14.005V1.99434C2 1.63634 2.298 1.33301 2.66533 1.33301H9.33333V5.33301C9.33333 5.50982 9.40357 5.67939 9.5286 5.80441C9.65362 5.92944 9.82319 5.99967 10 5.99967H14ZM14 4.66634H10.6667V1.33501L14 4.66634ZM5.33333 4.66634V5.99967H7.33333V4.66634H5.33333ZM5.33333 7.33301V8.66634H10.6667V7.33301H5.33333ZM5.33333 9.99967V11.333H10.6667V9.99967H5.33333Z" fill="black"/>
</g>
<defs>
<clipPath id="clip0_182_3894">
<rect width="16" height="16" fill="white"/>
</clipPath>
</defs>
</svg>
