<svg width="16" height="16" viewBox="0 0 16 16" fill="none" xmlns="http://www.w3.org/2000/svg">
<g clip-path="url(#clip0_182_3722)">
<path d="M14 6.00016V13.9955C14.0006 14.083 13.984 14.1699 13.951 14.251C13.9181 14.3321 13.8695 14.4059 13.808 14.4683C13.7466 14.5306 13.6734 14.5802 13.5928 14.6143C13.5121 14.6484 13.4255 14.6662 13.338 14.6668H2.662C2.48654 14.6668 2.31826 14.5972 2.19413 14.4732C2.07 14.3492 2.00018 14.181 2 14.0055V1.99483C2 1.63683 2.298 1.3335 2.66533 1.3335H9.33333V5.3335C9.33333 5.51031 9.40357 5.67988 9.5286 5.8049C9.65362 5.92992 9.82319 6.00016 10 6.00016H14ZM14 4.66683H10.6667V1.3355L14 4.66683ZM5.33333 4.66683V6.00016H7.33333V4.66683H5.33333ZM5.33333 7.3335V8.66683H10.6667V7.3335H5.33333ZM5.33333 10.0002V11.3335H10.6667V10.0002H5.33333Z" fill="#03053D"/>
</g>
<defs>
<clipPath id="clip0_182_3722">
<rect width="16" height="16" fill="white"/>
</clipPath>
</defs>
</svg>
