<svg width="29" height="29" viewBox="0 0 29 29" fill="none" xmlns="http://www.w3.org/2000/svg">
<path d="M16.2039 0.423828V2.35227C18.1113 2.35227 19.8982 2.83437 21.5647 3.79859C23.1508 4.74272 24.4157 6.00826 25.3594 7.5952C26.3231 9.2625 26.805 11.0503 26.805 12.9587H28.7324C28.7324 10.6887 28.1602 8.57951 27.0158 6.63098C25.9115 4.74272 24.4157 3.24618 22.5284 2.14134C20.5809 0.996333 18.4727 0.423828 16.2039 0.423828ZM6.23538 3.31648C5.69328 3.31648 5.22146 3.48723 4.8199 3.82872L1.7179 6.99257L1.80825 6.9323C1.30631 7.35415 0.975027 7.87643 0.814406 8.49916C0.673862 9.12188 0.714017 9.72452 0.934872 10.3071C1.49705 11.8739 2.24996 13.481 3.19361 15.1282C4.51874 17.3981 6.09484 19.437 7.9219 21.2449C10.8532 24.1978 14.4973 26.528 18.8542 28.2355H18.8843C19.4666 28.4364 20.0488 28.4766 20.6311 28.356C21.2334 28.2355 21.7655 27.9744 22.2273 27.5726L25.269 24.5293C25.6706 24.1275 25.8714 23.6354 25.8714 23.0528C25.8714 22.4502 25.6706 21.948 25.269 21.5462L21.3238 17.5688C20.9222 17.1671 20.4203 16.9662 19.8179 16.9662C19.2156 16.9662 18.7137 17.1671 18.3121 17.5688L16.4148 19.4973C14.8889 18.7741 13.5637 17.8802 12.4394 16.8155C11.315 15.7308 10.4216 14.415 9.75901 12.8683L11.6865 10.9398C12.1081 10.4979 12.3189 9.97562 12.3189 9.37298C12.3189 8.75026 12.078 8.24806 11.5961 7.86639L11.6865 7.95678L7.65086 3.82872C7.2493 3.48723 6.77748 3.31648 6.23538 3.31648ZM16.2039 4.2807V6.20914C17.4287 6.20914 18.553 6.51046 19.577 7.11309C20.621 7.71573 21.4442 8.53933 22.0466 9.5839C22.6489 10.6084 22.95 11.7333 22.95 12.9587H24.8775C24.8775 11.3918 24.486 9.93544 23.703 8.58955C22.9199 7.28384 21.8759 6.23927 20.5708 5.45584C19.2256 4.67242 17.77 4.2807 16.2039 4.2807ZM6.23538 5.24492C6.29561 5.24492 6.36588 5.27505 6.4462 5.33532L10.3915 9.37298C10.4115 9.45333 10.3915 9.52364 10.3312 9.5839L7.47016 12.4163L7.68097 13.0189L8.07249 13.8626C8.39373 14.5456 8.76517 15.2085 9.1868 15.8513C9.76905 16.7553 10.4115 17.5287 11.1143 18.1715C12.0579 19.0955 13.1923 19.9392 14.5174 20.7025C15.18 21.0842 15.7422 21.3654 16.2039 21.5462L16.8063 21.8174L19.7276 18.8946C19.7677 18.8545 19.7979 18.8344 19.8179 18.8344C19.838 18.8344 19.8681 18.8545 19.9083 18.8946L23.974 22.9624C24.0142 23.0026 24.0342 23.0327 24.0342 23.0528C24.0342 23.0528 24.0142 23.0729 23.974 23.1131L20.9624 26.0961C20.5206 26.4778 20.0388 26.5783 19.5168 26.3975C15.4209 24.8105 12.0077 22.641 9.27715 19.889C7.59062 18.2016 6.11491 16.2832 4.85002 14.1338C3.94652 12.587 3.24381 11.0905 2.74186 9.64417V9.61404C2.66155 9.43324 2.65151 9.22232 2.71175 8.98127C2.77198 8.72012 2.88241 8.51925 3.04303 8.37863L6.02456 5.33532C6.0848 5.27505 6.15507 5.24492 6.23538 5.24492ZM16.2039 8.13758V10.066C17.0071 10.066 17.6897 10.3472 18.2519 10.9097C18.814 11.4722 19.0951 12.1552 19.0951 12.9587H21.0226C21.0226 12.0949 20.8017 11.2914 20.36 10.5481C19.9384 9.80487 19.3561 9.22232 18.6133 8.80048C17.8704 8.35854 17.0673 8.13758 16.2039 8.13758Z" fill="black"/>
</svg>
