<svg width="102" height="18" viewBox="0 0 102 18" fill="none" xmlns="http://www.w3.org/2000/svg">
<path d="M8.92493 0L11.9676 4.77693L17.413 6.21885L13.848 10.6131L14.1709 16.2812L8.92493 14.22L3.67899 16.2812L4.00183 10.6131L0.436817 6.21885L5.88229 4.77693L8.92493 0Z" fill="#EAB48A"/>
<path d="M29.962 0L33.0047 4.77693L38.4502 6.21885L34.8851 10.6131L35.208 16.2812L29.962 14.22L24.7161 16.2812L25.0389 10.6131L21.4739 6.21885L26.9194 4.77693L29.962 0Z" fill="#EAB48A"/>
<path d="M50.9972 0L54.0398 4.77693L59.4853 6.21885L55.9203 10.6131L56.2431 16.2812L50.9972 14.22L45.7513 16.2812L46.0741 10.6131L42.5091 6.21885L47.9546 4.77693L50.9972 0Z" fill="#EAB48A"/>
<path d="M72.0382 0L75.0809 4.77693L80.5263 6.21885L76.9613 10.6131L77.2842 16.2812L72.0382 14.22L66.7923 16.2812L67.1151 10.6131L63.5501 6.21885L68.9956 4.77693L72.0382 0Z" fill="#EAB48A"/>
<path d="M93.0753 0L96.118 4.77693L101.563 6.21885L97.9984 10.6131L98.3213 16.2812L93.0753 14.22L87.8294 16.2812L88.1522 10.6131L84.5872 6.21885L90.0327 4.77693L93.0753 0Z" fill="#EAB48A"/>
</svg>
