<svg width="67" height="58" viewBox="0 0 67 58" fill="none" xmlns="http://www.w3.org/2000/svg">
<g clip-path="url(#clip0_182_3754)">
<path d="M55.3089 14.6579L24.0115 16.9813C22.693 17.0792 21.5619 17.8984 21.0597 19.1191C20.5574 20.3398 20.7853 21.716 21.6543 22.7104L28.518 30.5644L39.7948 24.8817C40.3137 24.6202 40.9468 24.8281 41.2089 25.346C41.4709 25.8639 41.2626 26.4959 40.7436 26.7574L29.4668 32.4401L31.724 42.6153C32.0098 43.9038 32.984 44.9038 34.2664 45.2252C35.5514 45.5471 36.8823 45.1226 37.7426 44.1236L58.1975 20.3677C59.1288 19.2861 59.3072 17.8234 58.6632 16.5503C58.0192 15.2772 56.7339 14.552 55.3089 14.6579Z" fill="#41BE90"/>
</g>
<line x1="1.02408" y1="-1.02408" x2="17.651" y2="-1.02408" transform="matrix(0.89302 -0.450018 0.451412 0.892316 6.68945 37.9219)" stroke="#41BE90" stroke-width="2.04816" stroke-linecap="round"/>
<line x1="1.02408" y1="-1.02408" x2="11.9048" y2="-1.02408" transform="matrix(0.89302 -0.450018 0.451412 0.892316 13.7617 39.1768)" stroke="#FBA333" stroke-width="2.04816" stroke-linecap="round"/>
<line x1="1.02408" y1="-1.02408" x2="6.87692" y2="-1.02408" transform="matrix(0.89302 -0.450017 0.451411 0.892316 20.1953 40.7559)" stroke="#41BE90" stroke-width="2.04816" stroke-linecap="round"/>
<defs>
<clipPath id="clip0_182_3754">
<rect width="35.9137" height="35.8723" fill="white" transform="matrix(0.89302 -0.450018 0.451412 0.892316 18.4961 16.707)"/>
</clipPath>
</defs>
</svg>
