<svg width="216" height="1972" viewBox="0 0 216 1972" fill="none" xmlns="http://www.w3.org/2000/svg">
<path d="M144 12C144 18.6274 149.373 24 156 24C162.627 24 168 18.6274 168 12C168 5.37258 162.627 0 156 0C149.373 0 144 5.37258 144 12Z" fill="black"/>
<path fill-rule="evenodd" clip-rule="evenodd" d="M160.2 7.725C159.075 6.6 157.575 6 156 6C152.7 6 150 8.7 150 12C150 13.05 150.3 14.1 150.825 15L150 18L153.15 17.175C154.05 17.625 155.025 17.925 156 17.925C159.3 17.925 162 15.225 162 11.925C162 10.35 161.325 8.85 160.2 7.725ZM156 16.95C155.1 16.95 154.2 16.725 153.45 16.275L153.3 16.2L151.425 16.725L151.95 14.925L151.8 14.7C151.275 13.875 151.05 12.975 151.05 12.075C151.05 9.375 153.3 7.125 156 7.125C157.35 7.125 158.55 7.65 159.525 8.55C160.5 9.525 160.95 10.725 160.95 12.075C160.95 14.7 158.775 16.95 156 16.95ZM158.7 13.2C158.55 13.125 157.8 12.75 157.65 12.75C157.5 12.675 157.425 12.675 157.35 12.825C157.275 12.975 156.975 13.275 156.9 13.425C156.825 13.5 156.75 13.5 156.6 13.5C156.45 13.425 156 13.275 155.4 12.75C154.95 12.375 154.65 11.85 154.575 11.7C154.5 11.55 154.575 11.475 154.65 11.4C154.725 11.325 154.8 11.25 154.875 11.175C154.95 11.1 154.95 11.025 155.025 10.95C155.1 10.875 155.025 10.8 155.025 10.725C155.025 10.65 154.725 9.9 154.575 9.6C154.5 9.375 154.35 9.375 154.275 9.375C154.2 9.375 154.125 9.375 153.975 9.375C153.9 9.375 153.75 9.375 153.6 9.525C153.45 9.675 153.075 10.05 153.075 10.8C153.075 11.55 153.6 12.225 153.675 12.375C153.75 12.45 154.725 14.025 156.225 14.625C157.5 15.15 157.725 15 158.025 15C158.325 15 158.925 14.625 159 14.325C159.15 13.95 159.15 13.65 159.075 13.65C159 13.275 158.85 13.275 158.7 13.2Z" fill="white"/>
<path d="M192 12C192 18.6274 197.373 24 204 24C210.627 24 216 18.6274 216 12C216 5.37258 210.627 0 204 0C197.373 0 192 5.37258 192 12Z" fill="black"/>
<g clip-path="url(#clip0_405_4357)">
<path d="M207.77 13.8857L206.827 12.943L207.77 12.0003C208.018 11.7527 208.214 11.4587 208.348 11.1352C208.482 10.8116 208.551 10.4649 208.551 10.1147C208.551 9.76446 208.482 9.41769 208.348 9.09415C208.214 8.7706 208.018 8.47662 207.77 8.22899C207.522 7.98137 207.228 7.78494 206.905 7.65092C206.581 7.5169 206.234 7.44793 205.884 7.44793C205.534 7.44793 205.187 7.5169 204.864 7.65092C204.54 7.78494 204.246 7.98137 203.999 8.22899L203.056 9.17166L202.113 8.22899L203.056 7.28633C203.808 6.54627 204.822 6.13343 205.877 6.13773C206.933 6.14203 207.943 6.56311 208.69 7.30927C209.436 8.05542 209.857 9.06619 209.861 10.1214C209.865 11.1766 209.453 12.1908 208.713 12.943L207.77 13.8857V13.8857ZM205.884 15.7717L204.941 16.7143C204.571 17.0907 204.13 17.3901 203.643 17.5951C203.157 17.8002 202.634 17.9068 202.106 17.909C201.578 17.9111 201.055 17.8087 200.567 17.6077C200.078 17.4066 199.635 17.1108 199.261 16.7375C198.888 16.3641 198.592 15.9205 198.391 15.4322C198.19 14.944 198.088 14.4208 198.09 13.8927C198.092 13.3647 198.199 12.8423 198.404 12.3558C198.609 11.8692 198.908 11.428 199.285 11.0577L200.227 10.115L201.17 11.0577L200.227 12.0003C199.98 12.248 199.783 12.5419 199.649 12.8655C199.515 13.189 199.446 13.5358 199.446 13.886C199.446 14.2362 199.515 14.583 199.649 14.9065C199.783 15.2301 199.98 15.524 200.227 15.7717C200.475 16.0193 200.769 16.2157 201.092 16.3497C201.416 16.4838 201.763 16.5527 202.113 16.5527C202.463 16.5527 202.81 16.4838 203.133 16.3497C203.457 16.2157 203.751 16.0193 203.999 15.7717L204.941 14.829L205.884 15.7717ZM205.884 9.17166L206.827 10.115L202.113 14.8283L201.17 13.8857L205.884 9.17233V9.17166Z" fill="white"/>
</g>
<path d="M96 12C96 18.6274 101.373 24 108 24C114.627 24 120 18.6274 120 12C120 5.37258 114.627 0 108 0C101.373 0 96 5.37258 96 12Z" fill="black"/>
<path d="M102.075 11.7812C105.296 10.3778 107.444 9.45256 108.519 9.00553C111.588 7.72919 112.225 7.50747 112.641 7.50007C112.732 7.49854 112.937 7.52119 113.069 7.62862C113.181 7.71932 113.211 7.84186 113.226 7.92786C113.241 8.01386 113.259 8.20977 113.245 8.36285C113.078 10.1101 112.359 14.3501 111.993 16.307C111.838 17.1351 111.533 17.4127 111.238 17.4399C110.596 17.4989 110.109 17.0158 109.487 16.6084C108.515 15.9709 107.965 15.5741 107.021 14.952C105.93 14.2331 106.638 13.8379 107.259 13.1922C107.422 13.0232 110.249 10.4516 110.304 10.2183C110.311 10.1891 110.317 10.0804 110.253 10.023C110.188 9.96553 110.093 9.98516 110.024 10.0008C109.926 10.0229 108.373 11.0498 105.363 13.0814C104.922 13.3842 104.522 13.5318 104.165 13.524C103.77 13.5155 103.011 13.301 102.447 13.1176C101.755 12.8926 101.205 12.7737 101.253 12.3917C101.278 12.1927 101.552 11.9892 102.075 11.7812Z" fill="white"/>
<path d="M0 1934.58C0 1955.09 5.37258 1971.71 12 1971.71C18.6274 1971.71 24 1955.09 24 1934.58C24 1914.07 18.6274 1897.45 12 1897.45C5.37258 1897.45 0 1914.07 0 1934.58Z" fill="black"/>
<path d="M18 1934.58C18 1924.37 15.3 1916.01 12 1916.01C8.7 1916.01 6 1924.37 6 1934.58C6 1943.86 8.175 1951.52 11.025 1952.91V1939.92H9.525V1934.58H11.025V1930.4C11.025 1925.76 11.925 1923.21 13.275 1923.21C13.95 1923.21 14.625 1923.67 14.625 1923.67V1928.31H13.875C13.125 1928.31 12.9 1929.71 12.9 1931.1V1934.58H14.55L14.25 1939.92H12.825V1953.15C15.825 1951.75 18 1943.86 18 1934.58Z" fill="white"/>
<path d="M48 12C48 18.6274 53.3726 24 60 24C66.6274 24 72 18.6274 72 12C72 5.37258 66.6274 0 60 0C53.3726 0 48 5.37258 48 12Z" fill="black"/>
<path d="M59.9984 6.90039C61.6484 6.90039 61.8734 6.90039 62.5484 6.90039C63.1484 6.90039 63.4484 7.05039 63.6734 7.12539C63.9734 7.27539 64.1984 7.35039 64.4234 7.57539C64.6484 7.80039 64.7984 8.02539 64.8734 8.32539C64.9484 8.55039 65.0234 8.85039 65.0984 9.45039C65.0984 10.1254 65.0984 10.2754 65.0984 12.0004C65.0984 13.7254 65.0984 13.8754 65.0984 14.5504C65.0984 15.1504 64.9484 15.4504 64.8734 15.6754C64.7234 15.9754 64.6484 16.2004 64.4234 16.4254C64.1984 16.6504 63.9734 16.8004 63.6734 16.8754C63.4484 16.9504 63.1484 17.0254 62.5484 17.1004C61.8734 17.1004 61.7234 17.1004 59.9984 17.1004C58.2734 17.1004 58.1234 17.1004 57.4484 17.1004C56.8484 17.1004 56.5484 16.9504 56.3234 16.8754C56.0234 16.7254 55.7984 16.6504 55.5734 16.4254C55.3484 16.2004 55.1984 15.9754 55.1234 15.6754C55.0484 15.4504 54.9734 15.1504 54.8984 14.5504C54.8984 13.8754 54.8984 13.7254 54.8984 12.0004C54.8984 10.2754 54.8984 10.1254 54.8984 9.45039C54.8984 8.85039 55.0484 8.55039 55.1234 8.32539C55.2734 8.02539 55.3484 7.80039 55.5734 7.57539C55.7984 7.35039 56.0234 7.20039 56.3234 7.12539C56.5484 7.05039 56.8484 6.97539 57.4484 6.90039C58.1234 6.90039 58.3484 6.90039 59.9984 6.90039ZM59.9984 5.77539C58.2734 5.77539 58.1234 5.77539 57.4484 5.77539C56.7734 5.77539 56.3234 5.92539 55.9484 6.07539C55.5734 6.22539 55.1984 6.45039 54.8234 6.82539C54.4484 7.20039 54.2984 7.50039 54.0734 7.95039C53.9234 8.32539 53.8484 8.77539 53.7734 9.45039C53.7734 10.1254 53.7734 10.3504 53.7734 12.0004C53.7734 13.7254 53.7734 13.8754 53.7734 14.5504C53.7734 15.2254 53.9234 15.6754 54.0734 16.0504C54.2234 16.4254 54.4484 16.8004 54.8234 17.1754C55.1984 17.5504 55.4984 17.7004 55.9484 17.9254C56.3234 18.0754 56.7734 18.1504 57.4484 18.2254C58.1234 18.2254 58.3484 18.2254 59.9984 18.2254C61.6484 18.2254 61.8734 18.2254 62.5484 18.2254C63.2234 18.2254 63.6734 18.0754 64.0484 17.9254C64.4234 17.7754 64.7984 17.5504 65.1734 17.1754C65.5484 16.8004 65.6984 16.5004 65.9234 16.0504C66.0734 15.6754 66.1484 15.2254 66.2234 14.5504C66.2234 13.8754 66.2234 13.6504 66.2234 12.0004C66.2234 10.3504 66.2234 10.1254 66.2234 9.45039C66.2234 8.77539 66.0734 8.32539 65.9234 7.95039C65.7734 7.57539 65.5484 7.20039 65.1734 6.82539C64.7984 6.45039 64.4984 6.30039 64.0484 6.07539C63.6734 5.92539 63.2234 5.85039 62.5484 5.77539C61.8734 5.77539 61.7234 5.77539 59.9984 5.77539Z" fill="white"/>
<path d="M59.9984 8.77539C58.1984 8.77539 56.7734 10.2004 56.7734 12.0004C56.7734 13.8004 58.1984 15.2254 59.9984 15.2254C61.7984 15.2254 63.2234 13.8004 63.2234 12.0004C63.2234 10.2004 61.7984 8.77539 59.9984 8.77539ZM59.9984 14.1004C58.8734 14.1004 57.8984 13.2004 57.8984 12.0004C57.8984 10.8754 58.7984 9.90039 59.9984 9.90039C61.1234 9.90039 62.0984 10.8004 62.0984 12.0004C62.0984 13.1254 61.1234 14.1004 59.9984 14.1004Z" fill="white"/>
<path d="M63.2984 9.45039C63.7127 9.45039 64.0484 9.1146 64.0484 8.70039C64.0484 8.28618 63.7127 7.95039 63.2984 7.95039C62.8842 7.95039 62.5484 8.28618 62.5484 8.70039C62.5484 9.1146 62.8842 9.45039 63.2984 9.45039Z" fill="white"/>
<defs>
<clipPath id="clip0_405_4357">
<rect width="16" height="16" fill="white" transform="translate(196 4)"/>
</clipPath>
</defs>
</svg>
