<svg width="16" height="16" viewBox="0 0 16 16" fill="none" xmlns="http://www.w3.org/2000/svg">
<g clip-path="url(#clip0_203_3396)">
<path d="M7.33203 4.66683H8.66536V6.00016H7.33203V4.66683ZM7.33203 7.3335H8.66536V11.3335H7.33203V7.3335ZM7.9987 1.3335C4.3187 1.3335 1.33203 4.32016 1.33203 8.00016C1.33203 11.6802 4.3187 14.6668 7.9987 14.6668C11.6787 14.6668 14.6654 11.6802 14.6654 8.00016C14.6654 4.32016 11.6787 1.3335 7.9987 1.3335ZM7.9987 13.3335C5.0587 13.3335 2.66536 10.9402 2.66536 8.00016C2.66536 5.06016 5.0587 2.66683 7.9987 2.66683C10.9387 2.66683 13.332 5.06016 13.332 8.00016C13.332 10.9402 10.9387 13.3335 7.9987 13.3335Z" fill="#666666"/>
</g>
<defs>
<clipPath id="clip0_203_3396">
<rect width="16" height="16" fill="white"/>
</clipPath>
</defs>
</svg>
