<svg width="20" height="20" viewBox="0 0 20 20" fill="none" xmlns="http://www.w3.org/2000/svg">
<g clip-path="url(#clip0_206_3657)">
<path d="M16.668 15.5562L17.0013 16.0003C17.0477 16.0622 17.076 16.1358 17.083 16.2129C17.0899 16.29 17.0753 16.3675 17.0406 16.4367C17.006 16.5059 16.9528 16.5641 16.887 16.6048C16.8212 16.6454 16.7454 16.667 16.668 16.667H3.33464C3.25726 16.667 3.1814 16.6454 3.11558 16.6048C3.04976 16.5641 2.99656 16.5059 2.96196 16.4367C2.92735 16.3675 2.9127 16.29 2.91965 16.2129C2.9266 16.1358 2.95487 16.0622 3.0013 16.0003L3.33464 15.5562V8.33366C3.33464 6.56555 4.03701 4.86986 5.28726 3.61961C6.5375 2.36937 8.23319 1.66699 10.0013 1.66699C11.7694 1.66699 13.4651 2.36937 14.7153 3.61961C15.9656 4.86986 16.668 6.56555 16.668 8.33366V15.5562ZM7.91797 17.5003H12.0846C12.0846 18.0529 11.8651 18.5828 11.4744 18.9735C11.0837 19.3642 10.5538 19.5837 10.0013 19.5837C9.44877 19.5837 8.91886 19.3642 8.52816 18.9735C8.13746 18.5828 7.91797 18.0529 7.91797 17.5003Z" fill="#F9DA78"/>
</g>
<defs>
<clipPath id="clip0_206_3657">
<rect width="20" height="20" fill="white"/>
</clipPath>
</defs>
</svg>
