<svg width="11" height="11" viewBox="0 0 11 11" fill="none" xmlns="http://www.w3.org/2000/svg">
<g clip-path="url(#clip0_182_4073)">
<path d="M10.0383 1.25759L8.07439 0.8045C7.861 0.755415 7.64194 0.8668 7.55507 1.06691L6.64863 3.18133C6.56932 3.36634 6.6222 3.58345 6.77893 3.70994L7.92331 4.64632C7.24348 6.09432 6.05567 7.29878 4.57704 7.99163L3.64039 6.84758C3.51198 6.69089 3.2967 6.63802 3.11163 6.71732L0.996608 7.62349C0.794548 7.71222 0.683132 7.93122 0.73223 8.14455L1.18545 10.1079C1.23266 10.3118 1.41395 10.4591 1.62734 10.4591C6.46357 10.4591 10.3896 6.54174 10.3896 1.69935C10.3896 1.48791 10.2442 1.30479 10.0383 1.25759Z" fill="white"/>
</g>
<defs>
<clipPath id="clip0_182_4073">
<rect x="0.720703" y="0.793945" width="9.66868" height="9.66591" fill="white"/>
</clipPath>
</defs>
</svg>
