<svg width="20" height="20" viewBox="0 0 20 20" fill="none" xmlns="http://www.w3.org/2000/svg">
<g clip-path="url(#clip0_367_1606)">
<path d="M9.08451 1.75L17.3337 2.92917L18.512 11.1792L10.852 18.8392C10.6957 18.9954 10.4838 19.0832 10.2628 19.0832C10.0419 19.0832 9.82995 18.9954 9.67368 18.8392L1.42368 10.5892C1.26745 10.4329 1.17969 10.221 1.17969 10C1.17969 9.77903 1.26745 9.56711 1.42368 9.41083L9.08451 1.75ZM11.4412 8.82167C11.596 8.97641 11.7797 9.09914 11.982 9.18287C12.1842 9.26659 12.4009 9.30967 12.6198 9.30963C12.8387 9.30959 13.0554 9.26644 13.2576 9.18264C13.4598 9.09885 13.6435 8.97605 13.7983 8.82125C13.953 8.66645 14.0757 8.4827 14.1595 8.28047C14.2432 8.07824 14.2863 7.8615 14.2862 7.64262C14.2862 7.42375 14.243 7.20702 14.1592 7.00482C14.0754 6.80262 13.9526 6.61891 13.7978 6.46417C13.643 6.30943 13.4593 6.18669 13.2571 6.10296C13.0548 6.01924 12.8381 5.97617 12.6192 5.97621C12.1772 5.97629 11.7533 6.15196 11.4408 6.46458C11.1282 6.77721 10.9527 7.20117 10.9528 7.64321C10.9529 8.08525 11.1286 8.50915 11.4412 8.82167Z" fill="white"/>
</g>
<defs>
<clipPath id="clip0_367_1606">
<rect width="20" height="20" fill="white"/>
</clipPath>
</defs>
</svg>
