<svg width="24" height="25" viewBox="0 0 24 25" fill="none" xmlns="http://www.w3.org/2000/svg">
<g clip-path="url(#clip0_206_3640)">
<path d="M12 22.3027C6.477 22.3027 2 17.8257 2 12.3027C2 6.77973 6.477 2.30273 12 2.30273C17.523 2.30273 22 6.77973 22 12.3027C22 17.8257 17.523 22.3027 12 22.3027ZM11 15.3027V17.3027H13V15.3027H11ZM13 13.6577C13.8037 13.4155 14.4936 12.8927 14.9442 12.1845C15.3947 11.4763 15.5759 10.6298 15.4547 9.7992C15.3336 8.96861 14.9181 8.20917 14.284 7.65919C13.6499 7.10921 12.8394 6.80527 12 6.80273C11.1909 6.80267 10.4067 7.08289 9.78079 7.59573C9.15492 8.10857 8.72601 8.82236 8.567 9.61573L10.529 10.0087C10.5847 9.73017 10.7183 9.47314 10.9144 9.26755C11.1104 9.06196 11.3608 8.91628 11.6364 8.84744C11.912 8.7786 12.2015 8.78944 12.4712 8.8787C12.7409 8.96796 12.9797 9.13197 13.1598 9.35165C13.34 9.57132 13.454 9.83763 13.4887 10.1196C13.5234 10.4015 13.4773 10.6875 13.3558 10.9443C13.2343 11.2011 13.0423 11.4181 12.8023 11.5701C12.5623 11.722 12.2841 11.8027 12 11.8027C11.7348 11.8027 11.4804 11.9081 11.2929 12.0956C11.1054 12.2832 11 12.5375 11 12.8027V14.3027H13V13.6577Z" fill="#F9DA78"/>
</g>
<defs>
<clipPath id="clip0_206_3640">
<rect width="24" height="24" fill="white" transform="translate(0 0.302734)"/>
</clipPath>
</defs>
</svg>
