<svg width="865" height="32" viewBox="0 0 865 32" fill="none" xmlns="http://www.w3.org/2000/svg">
<rect width="865" height="32" rx="2" fill="black" fill-opacity="0.7"/>
<rect x="10.5" y="10.5" width="731" height="11" stroke="#666666"/>
<rect x="12" y="12" width="91" height="8" fill="#666666"/>
<rect x="12" y="12" width="22" height="8" fill="#00ADEF"/>
<rect x="758" y="16" width="3" height="6" fill="#00ADEF"/>
<rect x="763" y="14" width="3" height="8" fill="#00ADEF"/>
<rect x="768" y="12" width="3" height="10" fill="#00ADEF"/>
<rect x="773" y="10" width="3" height="12" fill="#00ADEF"/>
<path d="M855 22L854.9 18L853.9 19L851.9 17L850 18.9L852 20.9L851 21.9" fill="white"/>
<path d="M843 22L847 21.9L846 20.9L848 18.9L846.1 17L844.1 19L843.1 18" fill="white"/>
<path d="M843 10L843.1 14L844.1 13L846.1 15L848 13.1L846 11.1L847 10.1" fill="white"/>
<path d="M855 10L851 10.1L852 11.1L850 13.1L851.9 15L853.9 13L854.9 14" fill="white"/>
<path d="M826.195 8H824.695C824.142 8 823.695 8.44772 823.695 9V9.71C823.687 10.0367 823.481 10.3257 823.175 10.44C822.67 10.6479 822.195 10.9238 821.765 11.26C821.512 11.4653 821.16 11.4969 820.875 11.34L820.255 11C820.024 10.8665 819.75 10.8304 819.493 10.8999C819.236 10.9693 819.017 11.1386 818.885 11.37L818.135 12.67C817.883 13.141 818.046 13.7266 818.505 14L819.125 14.36C819.401 14.5301 819.547 14.85 819.495 15.17C819.421 15.7108 819.421 16.2592 819.495 16.8C819.547 17.12 819.401 17.4399 819.125 17.61L818.505 18C818.273 18.132 818.104 18.3508 818.035 18.608C817.965 18.8652 818.001 19.1395 818.135 19.37L818.885 20.67C819.173 21.1377 819.785 21.2851 820.255 21L820.875 20.64C821.16 20.4831 821.512 20.5147 821.765 20.72C822.195 21.0562 822.67 21.3321 823.175 21.54C823.481 21.6543 823.687 21.9433 823.695 22.27V23C823.695 23.5523 824.142 24 824.695 24H826.195C826.747 24 827.195 23.5523 827.195 23V22.29C827.203 21.9633 827.409 21.6743 827.715 21.56C828.22 21.3521 828.694 21.0762 829.125 20.74C829.377 20.5347 829.729 20.5031 830.015 20.66L830.635 21.02C830.865 21.1535 831.14 21.1896 831.397 21.1201C831.654 21.0507 831.873 20.8814 832.005 20.65L832.755 19.35C833.019 18.8743 832.855 18.2743 832.385 18L831.765 17.64C831.489 17.4699 831.342 17.15 831.395 16.83C831.469 16.2892 831.469 15.7408 831.395 15.2C831.342 14.88 831.489 14.5601 831.765 14.39L832.385 14.03C832.616 13.898 832.785 13.6792 832.855 13.422C832.924 13.1648 832.888 12.8905 832.755 12.66L832.005 11.36C831.871 11.1303 831.651 10.9632 831.394 10.8956C831.137 10.8281 830.864 10.8656 830.635 11L830.015 11.36C829.729 11.5169 829.377 11.4853 829.125 11.28C828.694 10.9438 828.22 10.6679 827.715 10.46C827.409 10.3457 827.203 10.0567 827.195 9.73V9C827.195 8.73478 827.089 8.48043 826.902 8.29289C826.714 8.10536 826.46 8 826.195 8ZM827.945 16C827.945 17.3807 826.825 18.5 825.445 18.5C824.064 18.5 822.945 17.3807 822.945 16C822.945 14.6193 824.064 13.5 825.445 13.5C826.825 13.5 827.945 14.6193 827.945 16Z" fill="white"/>
<path fill-rule="evenodd" clip-rule="evenodd" d="M804 9H790C788.343 9 787 10.343 787 12V20C787 21.656 788.343 23 790 23H804C805.657 23 807 21.656 807 20V12C807 10.343 805.657 9 804 9ZM796.729 17.282C796.584 18.205 796.213 18.968 795.624 19.55C795.027 20.141 794.255 20.44 793.33 20.44C792.192 20.44 791.281 20.038 790.624 19.245C789.977 18.459 789.649 17.379 789.649 16.03C789.649 14.572 790.021 13.427 790.754 12.627C791.404 11.919 792.241 11.56 793.241 11.56C794.571 11.56 795.562 12.042 796.188 12.995C796.528 13.525 796.714 14.067 796.741 14.606L796.754 14.842H794.77L794.726 14.673C794.634 14.318 794.519 14.051 794.383 13.88C794.144 13.582 793.792 13.437 793.307 13.437C792.824 13.437 792.451 13.646 792.167 14.078C791.869 14.533 791.718 15.198 791.718 16.055C791.718 16.906 791.874 17.545 792.184 17.953C792.482 18.348 792.85 18.541 793.306 18.541C793.775 18.541 794.12 18.381 794.364 18.05C794.502 17.867 794.619 17.578 794.715 17.194L794.757 17.024H796.77L796.729 17.282V17.282ZM804.311 17.282C804.166 18.205 803.795 18.968 803.207 19.55C802.609 20.141 801.838 20.44 800.913 20.44C799.774 20.44 798.864 20.038 798.206 19.245C797.56 18.46 797.231 17.38 797.231 16.031C797.231 14.573 797.603 13.428 798.337 12.628C798.986 11.92 799.822 11.561 800.823 11.561C802.153 11.561 803.143 12.043 803.769 12.996C804.109 13.526 804.295 14.068 804.323 14.607L804.335 14.843H802.352L802.309 14.674C802.217 14.319 802.101 14.051 801.965 13.881C801.727 13.583 801.374 13.438 800.889 13.438C800.406 13.438 800.033 13.647 799.75 14.079C799.451 14.534 799.3 15.199 799.3 16.056C799.3 16.907 799.457 17.546 799.767 17.954C800.066 18.349 800.433 18.542 800.888 18.542C801.357 18.542 801.702 18.382 801.946 18.051C802.084 17.868 802.202 17.579 802.298 17.195L802.34 17.025H804.352L804.311 17.282V17.282Z" fill="white"/>
</svg>
