<svg width="20" height="17" viewBox="0 0 20 17" fill="none" xmlns="http://www.w3.org/2000/svg">
<path d="M10.0006 16.0087C9.84196 16.008 9.68576 15.9695 9.54492 15.8965C9.40408 15.8234 9.28263 15.7179 9.19061 15.5887C7.97828 14.0978 6.50415 12.8406 4.84061 11.8787C2.46061 10.3087 0.000613373 8.6887 0.000613373 5.5087C-0.0103856 4.78034 0.126643 4.05733 0.403393 3.3835C0.680143 2.70968 1.09085 2.09907 1.61061 1.5887C2.19977 1.04553 2.89176 0.625879 3.64575 0.354512C4.39973 0.0831451 5.20044 -0.0344383 6.00061 0.00870107C6.76917 0.023937 7.52615 0.198952 8.2234 0.522614C8.92065 0.846276 9.54292 1.3115 10.0506 1.8887C11.0675 0.765203 12.4874 0.0894006 14.0006 0.00870107C16.9006 0.00870107 20.0006 2.2187 20.0006 5.5087C20.0006 8.7987 17.5406 10.3087 15.1606 11.8787C13.4971 12.8406 12.0229 14.0978 10.8106 15.5887C10.7186 15.7179 10.5972 15.8234 10.4563 15.8965C10.3155 15.9695 10.1593 16.008 10.0006 16.0087V16.0087ZM5.78061 2.0087C4.76029 1.97507 3.76572 2.33283 3.00061 3.0087C2.67104 3.33429 2.41214 3.72434 2.24008 4.15449C2.06803 4.58463 1.98651 5.04564 2.00061 5.5087C2.00061 7.5087 3.50061 8.5987 5.94061 10.2087C7.42204 11.1098 8.78582 12.1914 10.0006 13.4287C11.2154 12.1914 12.5792 11.1098 14.0606 10.2087C16.5006 8.5987 18.0006 7.5087 18.0006 5.5087C18.0006 3.2287 15.6806 2.0087 14.0006 2.0087C12.5606 2.0087 11.2206 3.4987 10.8306 4.0687C10.7308 4.21783 10.5928 4.33737 10.4309 4.41479C10.269 4.49221 10.0893 4.52464 9.91061 4.5087C9.73492 4.49294 9.56653 4.43098 9.42251 4.32912C9.2785 4.22725 9.16399 4.08911 9.09061 3.9287C8.78843 3.36641 8.34406 2.8932 7.80186 2.5563C7.25966 2.2194 6.63858 2.03058 6.00061 2.0087H5.78061Z" fill="white"/>
</svg>
