<svg width="20" height="20" viewBox="0 0 20 20" fill="none" xmlns="http://www.w3.org/2000/svg">
<path d="M10 20C4.477 20 0 15.523 0 10C0 4.477 4.477 0 10 0C15.523 0 20 4.477 20 10C20 15.523 15.523 20 10 20ZM10 18.5C11.1162 18.5 12.2215 18.2801 13.2528 17.853C14.2841 17.4258 15.2211 16.7997 16.0104 16.0104C16.7997 15.2211 17.4258 14.2841 17.853 13.2528C18.2801 12.2215 18.5 11.1162 18.5 10C18.5 8.88376 18.2801 7.77846 17.853 6.74719C17.4258 5.71592 16.7997 4.77889 16.0104 3.98959C15.2211 3.20029 14.2841 2.57419 13.2528 2.14702C12.2215 1.71986 11.1162 1.5 10 1.5C7.74566 1.5 5.58365 2.39553 3.98959 3.98959C2.39553 5.58365 1.5 7.74566 1.5 10C1.5 12.2543 2.39553 14.4163 3.98959 16.0104C5.58365 17.6045 7.74566 18.5 10 18.5V18.5ZM10.75 5V9.69L13.825 12.765C13.8987 12.8337 13.9578 12.9165 13.9988 13.0085C14.0398 13.1005 14.0618 13.1998 14.0636 13.3005C14.0654 13.4012 14.0468 13.5012 14.0091 13.5946C13.9714 13.688 13.9153 13.7728 13.844 13.844C13.7728 13.9153 13.688 13.9714 13.5946 14.0091C13.5012 14.0468 13.4012 14.0654 13.3005 14.0636C13.1998 14.0618 13.1005 14.0398 13.0085 13.9988C12.9165 13.9578 12.8337 13.8987 12.765 13.825L9.25 10.311V5C9.25 4.80109 9.32902 4.61032 9.46967 4.46967C9.61032 4.32902 9.80109 4.25 10 4.25C10.1989 4.25 10.3897 4.32902 10.5303 4.46967C10.671 4.61032 10.75 4.80109 10.75 5Z" fill="white"/>
</svg>
